#!OML:ASF H:\Terrain\Patient Classification 1\Terrain2\Thursday\justin.ASF
:FULLY-SPECIFIED
:DEGREES
1628
root 8.19427 17.3309 -19.054 -2.28991 7.0592 -359.197
lowerback 11.2956 0.327814 -3.98117
upperback 4.2222 0.0420128 0.765369
thorax -1.92094 -0.00425019 3.03416
lowerneck -12.5459 -1.29823 -8.85064
upperneck 36.8969 -0.132008 2.45822
head 14.9672 -0.919911 2.59031
rclavicle -1.13059e-015 -1.48095e-014
rhumerus -33.8646 -13.3727 -75.4324
rradius 27.915
rwrist -8.23814
rhand -21.6553 10.1386
rfingers 7.12502
rthumb 4.74165 -19.7883
lclavicle -1.13059e-015 -1.48095e-014
lhumerus -33.8527 9.48276 81.5635
lradius 35.2154
lwrist 4.92284
lhand -15.8342 22.2173
lfingers 7.12502
lthumb 10.3601 51.9421
rfemur -62.5479 -13.0016 23.5401
rtibia 85.1988
rfoot -19.4901 0.616099
rtoes -23.187
lfemur 10.8355 -2.56142 -22.7725
ltibia 9.79659
lfoot -12.9782 -10.7423
ltoes 6.35548
1629
root 8.16468 17.3251 -19.0107 -2.14666 7.03916 -359.578
lowerback 11.5449 0.341321 -3.76249
upperback 4.103 0.0743084 0.862954
thorax -2.18469 0.0198394 3.00936
lowerneck -12.3422 -1.3492 -8.90215
upperneck 36.7515 -0.251601 2.54641
head 14.8584 -0.961804 2.61284
rclavicle 1.20637e-014 -2.0276e-014
rhumerus -34.0273 -13.6354 -75.3394
rradius 27.2824
rwrist -8.25041
rhand -21.3879 12.0823
rfingers 7.12502
rthumb 4.99977 -17.8388
lclavicle 1.20637e-014 -2.0276e-014
lhumerus -33.8731 9.4796 81.5402
lradius 35.0821
lwrist 4.64946
lhand -15.7255 22.6711
lfingers 7.12502
lthumb 10.4649 52.3906
rfemur -62.4385 -12.2585 24.1166
rtibia 84.6911
rfoot -18.2985 0.0976307
rtoes -20.3971
lfemur 10.6374 -2.72354 -22.2032
ltibia 10.0378
lfoot -13.1591 -10.6348
ltoes 6.07114
1630
root 8.16834 17.3079 -18.9178 -2.22648 7.23851 -359.368
lowerback 11.5544 0.306201 -3.78699
upperback 4.09928 0.0211175 0.734316
thorax -2.18962 -0.00577881 2.89596
lowerneck -12.0518 -1.37075 -8.64898
upperneck 36.726 -0.354689 2.45756
head 14.7834 -0.981528 2.51264
rclavicle 7.20594e-015 -4.67144e-015
rhumerus -34.4078 -13.9619 -75.2663
rradius 27.3125
rwrist -8.20887
rhand -21.1605 11.2069
rfingers 7.12502
rthumb 5.21938 -18.7088
lclavicle 7.20594e-015 -4.67144e-015
lhumerus -34.0995 9.06357 81.618
lradius 35.0189
lwrist 4.8455
lhand -16.0985 23.2485
lfingers 7.12502
lthumb 10.1052 52.9858
rfemur -61.9816 -12.5502 23.8314
rtibia 84.4768
rfoot -16.8812 1.17963
rtoes -9.78487
lfemur 10.9043 -2.99991 -22.5022
ltibia 10.5669
lfoot -13.7604 -10.5608
ltoes 6.68728
1631
root 8.1587 17.2851 -18.8487 -2.05503 7.24299 -359.27
lowerback 11.676 0.438371 -3.73121
upperback 4.22848 0.196399 0.618722
thorax -2.13454 0.0794899 2.72067
lowerneck -12.6738 -1.51151 -8.28243
upperneck 36.7615 -0.583053 2.40002
head 14.9568 -1.0355 2.39143
rclavicle 2.2736e-015 -5.71506e-015
rhumerus -34.3221 -14.8212 -75.1764
rradius 27.0476
rwrist -8.067
rhand -20.9091 11.7819
rfingers 7.12502
rthumb 5.46212 -18.1277
lclavicle 2.2736e-015 -5.71506e-015
lhumerus -33.5559 8.61061 81.8109
lradius 34.7575
lwrist 4.85743
lhand -16.1791 23.514
lfingers 7.12502
lthumb 10.0274 53.2551
rfemur -61.9746 -12.4459 23.8702
rtibia 84.2524
rfoot -16.4324 0.795687
rtoes -10.9992
lfemur 10.6768 -2.79055 -22.4757
ltibia 11.1516
lfoot -14.1798 -10.8972
ltoes 7.1722
1632
root 8.15102 17.2704 -18.7777 -1.88137 7.16468 -359.084
lowerback 11.7058 0.297714 -4.20737
upperback 4.1574 -0.0379885 0.864012
thorax -2.20399 -0.0384122 3.27777
lowerneck -12.5988 -1.35272 -8.75226
upperneck 36.6792 -0.178597 2.28201
head 14.8792 -0.943388 2.48632
rclavicle -4.57205e-015 1.18277e-014
rhumerus -34.3447 -13.709 -75.1424
rradius 26.9996
rwrist -8.5743
rhand -21.1232 11.7567
rfingers 7.12502
rthumb 5.25542 -18.1581
lclavicle -4.57205e-015 1.18277e-014
lhumerus -33.8289 9.63996 81.9972
lradius 34.6459
lwrist 4.48182
lhand -15.9557 23.3449
lfingers 7.12502
lthumb 10.2429 53.0755
rfemur -61.9226 -12.3237 23.8408
rtibia 84.0629
rfoot -16.0203 0.487328
rtoes -11.2343
lfemur 10.6153 -2.32864 -22.514
ltibia 11.3576
lfoot -14.2686 -11.3751
ltoes 6.90651
